<?xml version="1.0" encoding="UTF-8" standalone="no"?><!DOCTYPE svg PUBLIC "-//W3C//DTD SVG 1.1//EN" "http://www.w3.org/Graphics/SVG/1.1/DTD/svg11.dtd"><svg width="100%" height="100%" viewBox="0 0 4267 4147" version="1.1" xmlns="http://www.w3.org/2000/svg" xmlns:xlink="http://www.w3.org/1999/xlink" xml:space="preserve" xmlns:serif="http://www.serif.com/" style="fill-rule:evenodd;clip-rule:evenodd;stroke-linejoin:round;stroke-miterlimit:2;"><g id="Favicon"><g id="Heart"><path d="M3126.51,2.498c351.082,-19.819 660.978,76.873 903.825,340.399c163.684,180.639 248.289,419.247 234.971,662.639c-43.248,903.223 -1488.3,2543.27 -2136.76,3141.41c-303.394,-241.272 -665.016,-637.263 -914.422,-933.697c-62.094,-71.116 -122.612,-143.635 -181.527,-217.414c-171.158,-217.615 -369.87,-469.541 -510.154,-705.944c-258.027,-434.829 -575.713,-899.1 -514.851,-1426.84c109.008,-945.383 1419.74,-1167.98 1884.58,-370.816c65.788,112.846 107.604,268.367 183.761,370.959l24.746,1.776c80.538,-84.549 193.756,-324.073 287.613,-438.036c211.714,-257.053 412.602,-380.582 738.222,-424.432Z" style="fill:#fff;fill-rule:nonzero;"/><path d="M3115.85,143.785c53.959,-6.53 108.292,-9.051 162.595,-7.59c268.252,7.59 516.741,169.841 695.719,359.531c-356.122,26.521 -845.34,25.662 -1178.06,80.137c440.814,42.933 825.778,41.931 1290.11,97.552c70.371,192.41 58.972,364.084 4.353,556.323c-267.478,-0.315 -748.447,26.092 -1011.54,56.365c269.226,42.246 677.848,64.185 963.857,89.103l-56.452,141.773c-169.869,1.518 -1213.55,-23.629 -1270.92,27.438c2.836,3.294 5.242,7.074 8.536,9.91c75.354,65.359 1058.54,59.888 1215.38,63.153l-204.583,356.18c-249.836,7.991 -499.557,18.989 -749.106,32.994c-74.181,4.669 -267.679,8.765 -314.565,62.037c62.18,73.12 810.885,80.624 951.57,90.276c-66.19,110.039 -165.001,245.941 -239.01,354.175c-88.128,5.757 -286.009,15.151 -330.374,102.507l14.722,26.55c58.771,32.851 115.308,29.271 184.018,33.911c-110.697,170.987 -287.814,381.126 -417.013,542.117c-517.028,-1.002 -926.824,43.706 -1449.35,4.382c-84.233,-100.931 -137.878,-171.416 -211.886,-279.966c199.857,-15.666 364.342,-5.9 569.068,-39.553c-199.484,-37.348 -443.048,-51.812 -646.513,-57.712c-43.277,-59.945 -112.302,-136.99 -161.966,-195.389c341.144,3.122 674.926,-42.446 1021.31,-52.928c-287.356,-131.033 -769.327,-77.646 -1100.56,-89.446c-84.892,-82.114 -146.528,-186.482 -207.075,-286.754c186.081,-4.669 348.275,-21.939 533.411,-40.871c-212.775,-46.685 -398.082,-70.342 -615.21,-94.745c-68.595,-93.341 -108.893,-180.323 -153.401,-285.78c164.514,-26.206 1540.72,-98.955 1576.92,-144.121c-201.06,-122.813 -1388.06,-12.602 -1657.71,5.699c-33.081,-62.036 -61.034,-123.443 -90.678,-187.054c180.696,-0.258 258.342,-9.166 434.857,-49.206c-134.298,-11.342 -320.035,-6.931 -458.171,-7.647c-20.879,-58.227 -39.667,-126.822 -57.769,-186.768c470.143,-14.979 859.489,24.459 1340.03,-60.862c-334.699,-83.317 -997.882,-70.486 -1359.88,-42.904c-2.091,-78.878 2.148,-162.567 4.554,-241.788c260.949,-4.296 577.174,-6.702 829.129,-60.604c-266.104,-19.304 -544.437,-4.726 -815.066,-15.638c24.86,-117.314 48.69,-173.393 104.282,-275.241c256.566,-26.55 545.239,-20.593 805.672,-20.134c226.006,0.401 484.606,-4.869 706.316,12.974c51.468,107.032 76.157,174.939 114.937,288.043c-263.641,-1.404 -467.021,-3.38 -728.256,45.596c87.441,29.1 177.603,49.206 269.14,60.032c105.256,12.545 432.079,9.079 488.502,48.604c8.592,34.856 16.296,103.709 59.344,103.938c112.96,0.602 189.489,-86.353 264.671,-158.299c217.787,-20.879 1036.09,-15.896 1177.78,-96.176l-6.301,-18.531c-218.674,-97.523 -798.942,-67.937 -1064.9,-62.638c25.748,-45.854 53.072,-90.821 81.97,-134.756c179.522,-275.67 370.128,-391.151 683.576,-458.199Z" style="fill:#fb2c36;fill-rule:nonzero;"/><path d="M1944.23,1244c81.341,-0.859 399.228,-18.33 410.025,82.687c-105.914,27.094 -266.991,33.825 -375.426,7.475c-40.785,-36.231 -28.355,-19.82 -34.599,-90.162Z" style="fill:#fb2c36;fill-rule:nonzero;"/><path d="M2287.35,2565.76c92.653,-6.731 302.793,-21.509 379.579,22.483l6.416,24.059l-25.548,21.022c-72.233,1.06 -353.717,19.333 -389.317,-45.539l28.87,-22.025Z" style="fill:#fb2c36;fill-rule:nonzero;"/><path d="M1911.3,2075.57c102.019,-3.179 286.754,-14.321 379.895,22.683l8.964,23.343l-24.631,13.49c-77.331,4.124 -324.531,29.844 -374.997,-25.319l10.769,-34.197Z" style="fill:#fb2c36;fill-rule:nonzero;"/><path d="M1907.29,3340.21c190.864,-21.423 575.255,19.963 795.075,27.754l-265.273,313.848c-114.936,0.745 -423.458,-10.569 -504.197,51.983l10.225,10.655c86.152,23.686 128.255,16.841 215.667,11.542l202.149,-6.244c-80.453,88.73 -141.401,150.738 -228.9,232.336c-217.184,-191.092 -411.199,-374.939 -590.062,-603.437c118.316,-15.18 245.941,-26.006 365.316,-38.437Z" style="fill:#fb2c36;fill-rule:nonzero;"/><path d="M929.968,145.446c20.221,-2.12 40.47,-3.838 60.777,-5.07c279.651,-16.382 487.098,112.646 686.468,291.967c-172.877,0.573 -321.41,-8.392 -492.941,-22.941c-261.349,-29.988 -508.808,-31.677 -771.56,-37.005c168.523,-141.458 305.284,-192.754 517.256,-226.951Z" style="fill:#fb2c36;fill-rule:nonzero;"/></g></g></svg>