<?xml version="1.0" encoding="UTF-8" standalone="no"?><!DOCTYPE svg PUBLIC "-//W3C//DTD SVG 1.1//EN" "http://www.w3.org/Graphics/SVG/1.1/DTD/svg11.dtd"><svg width="100%" height="100%" viewBox="0 0 4159 2188" version="1.1" xmlns="http://www.w3.org/2000/svg" xmlns:xlink="http://www.w3.org/1999/xlink" xml:space="preserve" xmlns:serif="http://www.serif.com/" style="fill-rule:evenodd;clip-rule:evenodd;stroke-linejoin:round;stroke-miterlimit:2;"><g id="Logo-Weiß" serif:id="Logo Weiß"><g><path d="M2039.77,0.604c299.373,-7.217 596.764,50.342 871.823,168.738c543.194,233.481 971.194,673.447 1189.61,1222.87c-89.046,-39.041 -197.598,-165.839 -277.141,-230.155c-110.951,-90.929 -234.735,-166.418 -343.416,-260.163c-159.533,-137.614 -316.876,-277.861 -475.849,-416.139c-22.618,-19.674 -44.711,-40.379 -68.693,-58.372c-41.529,50.654 -114.495,120.155 -147.528,166.215c25.394,-1.462 128.469,-7.951 126.258,31.353c-9.384,16.377 -24.567,19.535 -42.595,26.772c32.731,3.108 124.726,16.323 124.681,60.836c-10.9,15.932 -152.346,40.602 -180.654,46.788c17.671,27.551 49.014,90.365 45.43,122.293c-15.347,31.169 -95.357,23.738 -130.729,40.582c-43.14,20.536 -74.404,45.311 -114.797,69.64c-70.696,42.575 -139.79,77.283 -207.557,124.82c-36.086,25.31 -74.373,62.259 -108.789,83.073c-7.183,-0.739 -4.08,0.679 -9.329,-4.937c3.073,-15.882 24.16,-32.8 35.546,-43.755c77.611,-74.696 180.66,-116.131 266.563,-177.086c37.658,-26.723 78.711,-98.727 110.396,-134.793c27.05,-30.788 61.773,-65.114 83.96,-98.995c16.824,-6.082 46.238,-10.023 64.743,-13.344c39.937,-7.163 74.755,-13.076 113.617,-25.697c-44.335,-23.486 -91.961,-28.899 -140.826,-35.199c-14.38,-14.499 -23.803,-29.647 -35.04,-46.59c-12.839,1.229 -22.336,2.855 -33.182,-3.921c-1.889,-3.242 -4.432,-6.003 -4.362,-9.899c0.332,-19.753 105.81,-123.021 125.554,-146.774c-167.425,85.338 -291.249,250.468 -432.095,368.824c-47.086,39.566 -102.896,69.794 -153.263,104.175c-57.262,39.085 -128.716,88.664 -181.2,133.817c30.991,35.14 91.549,87.371 127.536,119.942l199.665,180.769c41.881,37.316 90.781,76.446 125.494,119.943c15.932,19.966 21.211,39.67 17.617,64.836c-17.051,18.42 -56.082,-13.23 -71.037,-23.644c0.872,64.936 -7.52,163.236 -10.811,230.958c71.925,2.602 143.76,7.351 215.403,14.241c40.532,-19.119 109.607,-51.245 139.433,-81.655c-40.543,0.629 -63.731,12.808 -102.113,20.566c-4.332,0.872 -6.469,-1.933 -8.843,-4.59c-1.646,-31.769 77.511,-41.306 85.214,-59.915c-20.581,-5.209 -56.221,13.072 -74.512,2.618l0.684,-5.032c18.142,-24.15 93.607,-65.208 122.302,-81.794c-17.091,1.408 -63.949,8.001 -75.37,-2.84l0.803,-4.729c15.352,-15.857 46.838,-28.477 67.613,-37.945c-19.228,-2.117 -83.693,-1.076 -92.596,-8.789c2.315,-20.685 82.548,-56.816 105.558,-80.386c-18.395,2.731 -29.409,10.955 -49.212,12.561l-4.308,-3.936l0.902,-5.919c11.937,-16.486 37.722,-30.475 55.627,-41.434c-17.786,0.54 -28.939,3.702 -41.911,-7.347c-8.253,-21.285 20.76,-37.776 37.42,-44.87l-19.183,-13.364l13.953,-21.468c18.098,-27.387 6.529,-65.223 23.491,-83.44l4.109,0.59c13.349,18.261 10.232,47.101 10.4,70.22c6.523,8.853 19.015,21.835 26.738,30.361c-7.847,5.076 -18.128,10.172 -26.51,14.623c2.241,0.332 4.471,0.679 6.707,1.041c17.423,2.895 50.089,16.908 41.103,38.857c-16.249,13.344 -30,11.099 -51.597,11.996c28.859,38.183 53.019,32.036 64.921,45.46c-10.762,5.289 -29.068,-0.734 -43.309,4.952c4.868,15.416 84.104,38.515 89.79,61.084l-2.91,4.828c-16.164,8.357 -74.874,7.995 -98.281,9.938l4.823,1.23c21.161,5.403 67.687,15.812 79.083,35.045l-1.581,4.447c-15.253,11.321 -50.591,7.955 -69.759,7.519c42.798,20.284 72.48,35.065 105.191,70.626c18.246,-11.886 130.56,-95.029 137.718,-106.856c-14.226,-12.566 -88.744,17.463 -99.139,-3.539c8.298,-26.257 80.575,-47.542 95.411,-65.164c-9.671,-17.18 -101.463,16.13 -108.264,-9.572c7.336,-18.112 33.038,-30.519 49.926,-39.942c32.572,-18.168 53.674,-29.142 78.721,-57.243c-17.423,3.847 -46.754,14.286 -63.567,10.305l-1.81,-3.653c7.351,-15.783 47.101,-37.707 64.435,-51.408c-0.565,-12.868 -36.527,-0.054 -50.996,-13.775c4.431,-35.745 8.322,-35.67 39.704,-40.83l-28.933,-17.959c15.808,-9.334 25.83,-12.883 42.957,-19.476c-7.475,-6.38 -15.615,-14.995 -22.668,-22.063c17.75,-16.77 20.442,-17.478 29.077,-40.702c7.653,-20.586 3.99,-81.432 21.503,-89.948c21.399,9.091 12.318,72.599 19.431,92.62c4.367,12.298 18.4,25.092 27.997,34.277l-23.878,25.846c10.712,1.784 34.679,4.377 41.961,10.201l0.396,5.477c-3.574,4.011 -7.381,7.436 -11.574,10.797c12.595,8.198 29.26,12.372 31.268,32.17c-10.231,16.209 -53.897,18.286 -62.432,28.051c6.458,19.644 55.314,30.634 70.859,44.895l-1.259,3.098c-22.059,5.22 -42.08,-0.431 -64.277,-4.64c36.568,37.043 117.336,63.95 133.361,86.846c-0.134,23.228 -108.74,18.494 -131.551,20.412c19.322,6.241 114.747,32.979 108.229,60.063c-18.246,13.567 -65.223,6.811 -93.646,11.386l-3.713,0.62c23.278,15.56 155.479,77.447 152.663,101.929c-10.667,8.808 -57.386,6.88 -72.822,7.123c20.046,13.235 87.886,42.392 93.096,63.736l-2.939,3.762c-27.675,6.043 -90.003,-14.578 -126.03,-17.646l-4.08,-0.322c27.382,22.018 143.835,66.194 140.068,101.329c-23.679,19.391 -161.214,-48.176 -191.496,-59.181l4.714,109.251c42.164,10.176 100.74,18.544 144.326,25.637c63.736,-36.815 145.02,-63.022 206.882,-102.137c-26.554,1.774 -115.313,23.03 -130.739,9.695l0.372,-5.244c20.735,-24.457 62.74,-41.46 92.1,-54.843c-25.642,-0.749 -91.817,12.992 -108.497,-3.336c0.634,-1.259 143.022,-92.348 165.769,-113.603c-20.978,0.104 -87.425,12.7 -99.694,1.17l-0.119,-6.003c18.807,-30.634 60.891,-37.935 89.364,-58.769c-19.63,-3.728 -33.618,-5.448 -52.281,-12.859l-4.342,1.721c-14.663,5.73 -27.585,13.368 -41.817,7.142c-14.395,-26.96 102.177,-68.346 109.841,-96.248l-3.074,-3.202c-18.99,-1.572 -45.707,13.027 -58.63,3.504c2.533,-8.892 2.766,-6.875 10.613,-14.305c20.928,-14.361 42.654,-24.126 64.524,-39.839c-15.857,0.451 -56.093,4.387 -60.266,-13.706c0.937,-2.131 10.151,-24.884 10.712,-25.27c3.365,-2.335 13.264,0.119 18.385,-6.846c-8.174,-7.515 -14.232,-10.216 -8.734,-20.73c11.48,-7.182 23.986,-8.754 37.41,-11.708c-10.355,-5.562 -19.521,-11.832 -29.34,-18.261c4.639,-5.23 24.863,-27.818 27.208,-32.468c12.789,-25.414 5.031,-59.24 17.86,-87.807c6.488,-4.991 2.949,-4.025 10.905,-3.247c15.53,14.708 2.013,64.544 15.862,89.849c8.923,16.299 13.914,21.479 25.548,36.077c-7.896,6.037 -20.036,13.091 -28.74,18.504c8.139,0.446 19.719,0.729 27.551,2.082c18.801,3.257 43.105,37.846 38.782,56.296c-10.93,12.526 -47.68,13.205 -65.262,14.91c24.289,21.761 44.26,24.507 70.735,41.455c3.405,2.181 1.958,1.541 3.182,7.554c-11.004,10.112 -33.142,-3.361 -53.252,-0.907l-1.304,3.098c15.912,35.209 109.598,63.008 105.945,94.469c-14.063,4.189 -101.131,7.188 -122.843,8.263c25.33,7.897 99.803,31.764 110.346,54.11c-3.663,21.964 -75.474,14.499 -93.626,14.038c26.326,19.699 148.955,90.127 150.958,112.978l-2.781,3.247c-16.016,2.924 -58.576,0.952 -76.664,0.783c18.668,13.314 80.892,37.484 80.54,59.899c-21.017,15.367 -77.967,-11.643 -114.658,-14.102l-3.866,-0.243c36.463,27.075 139.413,67.186 151.795,105.394c-1.735,9.711 0.451,5.646 -7.163,12.417c-30.97,7.252 -155.498,-57.376 -193.904,-73.154c-0.506,38.912 0.168,77.824 2.022,116.691c32.498,10.295 77.343,20.358 110.986,28.661l226.907,54.694c24.279,5.954 125.411,25.524 135.443,45.366l-1.809,4.466c-23.164,12.15 -153.625,-28.348 -185.433,-36.225c-108.983,-27.491 -218.402,-53.232 -328.208,-77.219c-179.941,-37.524 -361.28,-68.014 -543.595,-91.405c-81.765,-9.84 -163.608,-18.995 -245.526,-27.472c-89.022,-8.585 -168.486,-13.016 -256.055,-33.112c-42.139,-4.506 -87.891,-2.82 -129.733,-6.33c-79.826,-6.697 -166.091,-9.636 -244.579,-24.432c47.453,-7.763 140.806,-4.982 189.994,-3.763c0.213,-10.394 0.798,-17.096 -1.066,-27.253c-13.463,-1.849 -21.448,-2.488 -34.45,-6.875l-0.655,-2.94c12.021,-5.11 24.274,-6.295 37.247,-8.397l-1.329,-36.79c-64.202,-2.989 -132.88,3.054 -196.185,-5.348c-5.482,-0.729 -7.862,-17.85 -3.569,-23.977c52.038,-6.166 134.001,7.118 197.935,-0.377l4.079,-0.5c2.419,-11.971 2.811,-21.811 3.654,-33.921c-38.193,-0.386 -103.778,-5.189 -141.268,-10.027c47.091,-5.636 94.494,-8.259 141.922,-7.857l2.974,-35.224c-30.995,-0.159 -187.763,3.054 -210.124,-4.709c-3.707,-5.76 -2.042,-11.138 -1.279,-18.306c1.304,-1.388 2.608,-2.781 3.916,-4.174c63.965,-6.587 131.136,0.823 195.501,-2.597c11.476,-0.61 11.53,-0.967 16.279,-6.553c1.854,-14.797 -14.291,-33.44 -21.508,-48.102l4.867,-1.923c28.176,14.979 57.704,43.08 88.536,62.214c-13.617,-18.351 -93.502,-105.582 -114.802,-103.188c-3.297,6.226 0.208,15.629 1.953,23.664c-5.066,-0.228 -14.172,-8.223 -19.263,-11.916c-32.889,-1.785 -146.878,3.162 -163.692,-19.035l1.135,-4.461c12.135,-4.204 100.214,-6.548 119.095,-7.292c-16.467,-15.376 -32.255,-29.018 -51.23,-41.177c-27.491,-0.813 -99.213,0.749 -117.023,-16.447l1.537,-2.721c21.934,-8.987 59.939,-7.208 84.793,-7.505c-11.332,-10.786 -17.458,-16.968 -31.392,-25.3c-11.327,-6.771 -43.919,-12.095 -47.76,-18.138c7.252,-4.976 15.059,-4.53 24.1,-5.348c-20.868,-19.387 -46.213,-44.85 -70.561,-58.214c-68.49,2.796 -94.028,19.842 -160.044,-12.67c43.913,-10.538 90.121,-9.478 135.046,-9.706c-21.92,-21.186 -36.637,-44.984 -62.482,-60.771c-33.429,23.272 -75.593,59.269 -107.352,85.551l-111.511,90.974c19.421,-0.104 86.008,-4.506 97.577,10.063l-0.798,6.122c-15.302,13.948 -103.292,10.3 -129.321,10.379c-17.156,10.985 -37.618,29.841 -52.459,43.572c30.197,0.54 99.674,-1.656 124.805,11.336l1.096,4.03c-19.332,18.271 -120.295,13.691 -148.703,13.562l-1.323,35.601c19.173,0.56 53.475,-0.268 68.802,9.031l-0.184,3.926c-16.482,9.954 -49.103,10.484 -69.218,11.887l0.347,37.028c31.813,0.64 131.428,-3.638 154.874,2.662c7.088,6.984 4.996,2.979 7.222,12.035l-3.495,5.18c-24.333,12.883 -126.069,7.386 -159.236,7.01l-1.759,76.321c27.808,0.863 185.373,-7.559 188.015,19.734c-16.843,17.136 -157.233,10.954 -187.807,10.821l-1.23,41.821c29.311,-0.372 94.484,-3.301 119.09,3.911l1.289,2.935l-1.031,-1.829c-21.766,21.919 -97.15,1.125 -123.055,25.062l0.421,7.068c31.07,23.917 117.261,-3.132 126,17.86c-9.612,9.656 -338.335,21.32 -385.014,23.669c-207.784,10.445 -403.27,49.961 -607.054,86.553c-232.276,41.713 -453.439,103.471 -680.178,167.37c-7.376,2.072 -36.126,11.51 -41.817,11.872c-25.082,1.596 -98.851,47.294 -105.269,5.146c3.934,-7.798 9.018,-10.737 17.148,-13.488c129.64,-43.889 284.157,-61.887 407.624,-119.72c4.893,-33.732 5.557,-75.766 5.755,-109.939c-45.817,18.236 -89.016,44.86 -135.106,62.74c-15.842,6.141 -63.929,26.46 -67.533,-1.022c15.06,-41.821 135.166,-75.409 142.086,-99.292c-24.24,-6.82 -85.195,27.581 -109.677,11.813l-0.342,-5.056c16.199,-24.507 76.153,-49.961 103.783,-63.722l-1.983,0.03c-1.105,0.035 -2.206,0.065 -3.306,0.099c-18.614,-5.814 -96.819,26.227 -98.341,-1.021c13.339,-26.579 116.111,-89.631 148.029,-112.591c-24.919,2.181 -74.017,9.765 -94.078,-2.013c-11.589,-22.663 68.178,-57.515 85.75,-67.384c-22.385,0.595 -97.423,7.797 -109.597,-10.434c3.053,-16.398 32.968,-29.772 47.69,-37.301c29.514,-15.084 48.856,-26.262 71.687,-50.372c-15.113,1.388 -42.144,7.014 -53.51,-3.589c5.76,-16.08 33.573,-24.755 47.027,-36.176c7.435,-6.315 11.158,-10.494 17.547,-17.711c-18.603,0.367 -44.211,5.448 -55.101,-10.831c-1.319,-9.002 5.145,-36.165 11.326,-40.899c6.791,-5.195 40.821,-14.931 50.348,-18.207c-16.417,0.892 -32.845,1.497 -49.282,1.824c30.931,-33.077 36.776,-36.567 45.178,-80.411c-48.509,27.417 -106.133,63.012 -156.495,84.337c-75.266,31.863 -146.452,59.324 -220.598,94.702c17.904,-58.526 46.526,-116.969 73.219,-172.094c138.853,-286.773 360.561,-546.525 607.252,-746.83c369.008,-299.621 840.341,-457.697 1313.27,-476.622Zm1604.53,1795.33c6.816,18.871 4.055,87.435 3.509,111.219c-44.632,-6.752 -88.634,-18.361 -133.658,-25.9l-42.971,-4.417c11.628,-5.576 23.649,-10.271 35.744,-14.732c47.938,-17.681 92.466,-41.995 137.376,-66.17Zm-3179.36,7.431c34.53,13.378 68.644,27.347 103.069,40.894c23.67,9.309 47.562,16.333 71.033,26.599l-0.159,2.137l-18.177,5.784c-38.247,8.382 -76.876,15.937 -115.228,23.724c-53.505,10.866 -41.207,-65.972 -40.538,-99.138Zm854.325,-1211.81c45.376,9.844 153.551,117.082 197.092,151.934c123.14,98.554 255.326,180.363 389.579,262.707c22.733,13.944 45.847,28.919 69.724,40.577c-32.938,28.75 -87.321,79.509 -121.682,101.454c0.58,-33.38 -9.18,-76.168 -35.7,-98.177c-20.829,-17.285 -34.822,19.892 -39.769,32.716l-21.201,8.59c-5.269,30.877 -1.085,103.307 -0.064,137.465c-32.825,36.131 -99.57,79.653 -136.955,114.133c-33.102,30.53 -38.515,41.078 -41.247,83.48c-18.578,20.368 -122.738,92.53 -57.867,115.625c16.695,5.938 64.624,-40.454 79.777,-51.983c0.411,56.89 1.616,194.99 -5.874,249.129c-80.981,2.281 -119.938,0.476 -202.138,12.07c-51.745,-30.737 -98.588,-42.58 -146.715,-70.933c29.082,4.714 74.393,21.662 100.021,14.772c25.201,-25.662 -95.178,-100.284 -114.064,-115.249c14.563,1.477 62.66,9.77 68.634,-4.411c-7.386,-14.088 -55.488,-38.303 -72.352,-48.514c20.061,-3.346 73.348,-0.51 83.604,-16.422c-5.785,-32.086 -80.689,-40.682 -80.709,-64.946c13.285,-6.984 29.861,4.219 41.49,-4.773c-4.967,-19.218 -56.207,-21.954 -58.586,-44.568c13.651,-7.222 30.971,1.725 43.482,-11.589l-0.412,-6.454c-7.564,-13.304 -24.348,-23.917 -37.122,-33.395c-1.115,-7.728 8.417,-0.882 12.953,-11.262c-15.278,-17.815 -30.094,-36.235 -30.139,-60.762c-0.024,-12.486 -2.111,-48.488 -15.971,-52.618c-16.055,25.752 -4.575,65.982 -19.411,92.432c-3.743,6.682 -16.958,20.586 -22.658,26.713c12.843,-0.758 25.652,0.382 38.52,1.14c-19.476,4.893 -45.202,10.157 -46.674,35.467c6.92,20.165 26.39,16.809 44.002,16.868c-21.929,35.561 -47.993,30.257 -58.353,46.496l3.421,3.376c15.004,4.466 30.604,2.939 46.367,2.523c-27.62,22.936 -77.457,41.108 -92.997,66.348c-0.169,25.36 66.74,16.165 85.353,15.382c-17.845,9.78 -70.928,28.155 -75.637,46.743l3.152,4.799c18.911,8.411 51.022,4.109 72.54,2.79c-19.322,16.953 -116.131,71.846 -107.531,89.944c16.973,7.891 38.674,1.735 57.416,-1.413c-13.755,5.923 -72.827,29.608 -70.799,47.884c16.977,13.483 82.874,-0.818 105.096,-3.966c-21.3,11.679 -81.011,31.035 -90.464,51.478c11.813,17.503 91.262,-15.461 116.969,-7.911c3.936,6.275 3.291,2.949 1.859,10.32c-12.09,11.019 -91.123,21.092 -113.028,24.923c-40.979,-57.287 -94.028,-43.031 -141.723,-85.784l10.033,1.556c30.936,4.635 81.972,28.329 103.847,20.011l1.517,-4.01c-8.531,-20.977 -70.686,-45.053 -92.818,-59.78c17.299,3.341 74.507,19.376 80.743,0.456c-12.303,-32.433 -101.662,-73.115 -127.334,-98.341c20.819,1.869 76.877,12.651 90.791,-1.665c-4.733,-19.768 -72.068,-53.56 -93.913,-68.539c19.193,0.515 100.184,11.976 100.784,-11.52c-12.66,-19.055 -84.055,-54.853 -109.791,-77.229l-2.761,-2.434c16.843,-0.099 41.098,3.182 56.563,-1.953l1.487,-3.455c-9.671,-17.681 -55.849,-27.451 -65.327,-41.098c6.89,-10.816 31.174,-8.996 47.839,-13.081c14.475,-12.556 -5.477,-24.492 -14.756,-34.832c2.106,-5.284 1.997,-4.957 2.086,-10.663c-6.439,-7.009 -31.159,-11.579 -41.846,-14.276c13.775,-1.655 24.19,-4.094 37.593,-7.133c-11.366,-14.122 -25.538,-22.762 -39.179,-38.852c-0.317,-9.859 -0.768,-19.714 -1.363,-29.563c-1.16,-17.161 -5.403,-52.826 -18.435,-64.078c-7.297,0.213 -4,-0.843 -9.656,4.402c-8.437,25.667 -2.32,59.716 -3.039,88.902c-8.714,12.095 -24.09,28.041 -34.911,42.352l35.675,3.346c-41.356,16.204 -44.776,8.328 -53.386,57.872c8.912,9.145 30.242,4.977 41.672,14.43l0.313,4.471c-14.063,18.851 -56.906,26.762 -60.569,43.209c10.682,8.799 42.858,6.791 57.208,6.841c-25.816,25.662 -53.678,38.981 -85.209,56.479c-11.317,7.693 -20.77,11.183 -21.791,25.771c14.762,15.827 74.175,4.957 99.168,6.483c-19.496,12.497 -84.947,41.842 -89.254,61.64l4.124,4.441c21.379,8.001 61.233,3.876 85.378,2.84c-25.181,19.432 -139.646,80.967 -141.005,105.023l4.278,3.836c19.793,4.397 63.459,-6.513 86.375,-10.003c-20.676,11.674 -82.925,35.779 -88.779,57.674l4.149,3.44c31.353,4.794 83.326,-15.807 122.793,-19.778l4.932,-0.476c-47.002,28.968 -97.974,44.122 -141.089,77.526c-7.901,6.122 -10.28,10.365 -11.391,20.225c15.153,33.508 162.577,-43.294 189.587,-55.349c-0.907,26.851 -1.026,49.425 -7.336,75.593c-28.74,11.212 -98.697,27.927 -128.701,33.613c-49.743,-44.806 -134.035,-56.157 -199.075,-106.445c31.571,4.61 104.135,30.029 131.666,13.681l0.649,-4.987c-15.951,-24.428 -72.029,-45.033 -100.254,-58.655c28.418,1.541 78.949,17.642 99.694,4.377l-0.03,-5.948c-14.613,-23.68 -125.281,-96.135 -153.972,-117.554c23.645,1.963 64.361,8.144 83.961,-2.424c10.761,-21.215 -63.072,-47.74 -80.53,-57.668l-2.603,-1.507c22.723,-1.319 89.948,-2.88 105.231,-12.953c2.364,-36.081 -102.762,-65.798 -111.561,-90.528c13.062,-5.686 38.094,3.767 52.786,-3.445l1.334,-4.625c-8.541,-21.082 -66.249,-18.668 -62.968,-47.497c15.426,-11.277 41.351,-5.24 49.976,-22.073c-4.908,-9.106 -12.497,-27.531 -16.264,-33.499c-10.291,-6.712 -35.263,-9.324 -48.558,-11.5c14.965,-2.27 30.688,-4.065 45.762,-6.013c-39.397,-46.109 -42.788,-26.073 -47.665,-99.584c41.206,-22.827 83.767,-54.184 123.799,-79.757c90.582,-57.862 176.149,-117.33 262.181,-181.8c49.763,-32.394 96.506,-76.852 147.409,-106.832c63.106,-37.167 140.692,-64.98 206.183,-100.179c22.346,-12.011 48.692,-20.284 69.402,-33.91c22.108,-14.544 36.488,-45.207 54.511,-63.999c27.357,-1.224 8.813,99.213 7.406,116.72c26.921,53.719 135.522,128.652 184.709,174.241c-45.613,-7.743 -76.505,-10.256 -122.356,-13.309c-26.683,14.266 -190.748,131.869 -201.103,155.523c11.04,38.035 121.019,11.342 159.926,70.473c38.634,58.714 39.258,192.735 82.755,222.664c8.987,1.507 5.289,2.563 11.842,-1.521c8.784,-30.193 -28.289,-167.306 -44.82,-199.541c-12.214,-23.808 -38.005,-45.252 -58.968,-61.649c15.788,-63.404 42.437,-104.343 67.082,-162.225c40.295,3.093 79.921,10.107 120.102,13.864c13.606,1.269 24.928,2.256 30.029,-12.05c-3.356,-17.325 -42.838,-44.062 -57.337,-55.998c-51.294,-42.209 -112.215,-80.793 -150.899,-135.528c5.101,-25.141 25.841,-127.561 -19.391,-139.472c-27.392,-5.433 -51.071,57.807 -64.088,65.104c-54.814,30.723 -118.48,54.114 -173.135,84.044c11.871,-10.915 43.64,-33.042 57.916,-43.318c52.91,-38.084 111.353,-85.79 170.761,-112.17Zm1892.49,1139.95l1.492,0.734c5.498,6.9 5.76,84.317 6.127,97.636c-38.019,-2.999 -81.596,-9.2 -119.977,-13.77c-9.954,-1.591 -21.86,-2.612 -32.032,-3.757c44.256,-27.254 96.397,-51.557 144.39,-80.843Zm-2330.71,15.545c39.67,19.649 82.419,31.095 120.557,52.578l-0.56,2.028l-9.75,3.95c-20.923,6.142 -42.868,10.479 -64.044,15.441c-52.265,12.254 -45.886,-39.606 -46.203,-73.997Zm2147.99,-110.564c1.859,-0.124 3.718,-0.248 5.572,-0.372c1.869,6.737 2.374,8.402 5.294,14.722c19.793,11.733 62.11,-14.127 72.376,-1.779c-14.455,18.861 -86.087,37.206 -83.47,60.167c25.281,22.623 112.448,-31.115 134.774,-21.017l-0.763,4.684c-21.94,25.126 -121.152,74.914 -156.094,95.163l-24.006,13.106c-16.883,-2.697 -33.747,-5.512 -50.585,-8.452l-2.766,-68.118c28.046,9.949 90.781,37.242 116.859,23.337c11.525,-25.24 -73.204,-56.573 -93.081,-65.798c16.462,1.359 75.335,7.059 78.19,-12.972c-10.042,-15.218 -33.171,-21.32 -50.63,-28.036l48.33,-4.635Zm-140.851,92.461l4.382,0.437c8.422,11.599 8.095,44.29 8.878,60.013c-35.491,-2.627 -68.812,-5.125 -104.452,-5.071c-8.556,0.303 -9.557,-0.01 -17.681,-1.373c2.528,-4.942 95.019,-47.606 108.873,-54.006Zm-1661.3,5.166c20.333,3.023 62.323,14.082 81.66,21.567l-1.447,2.662c-21.915,2.325 -43.814,4.818 -65.689,7.475c-6.717,-11.51 -9.676,-19.496 -14.524,-31.704Zm1214.28,-41.029c12.169,2.156 25.894,7.485 37.771,11.565c-1.859,17.096 -2.419,33.731 -3.172,50.897c-46.471,-5.656 -35.383,-20.343 -34.599,-62.462Zm-771.426,-5.492l3.242,4.679c4.595,45.232 -2.196,45.287 -44.607,47.72c-5.736,-8.714 -5.845,-25.657 -6.618,-36.373l47.983,-16.026Zm774.781,-88.724c14.197,5.884 25.34,13.587 38.268,21.83c0.153,18.252 -1.581,38.788 -2.727,57.208c-13.056,-6.424 -26.058,-14.038 -38.782,-21.186c-0.709,-18.172 1.68,-39.462 3.241,-57.852Zm-775.852,6.142c5.309,0.386 2.831,-0.536 7.272,3.167c2.355,14.801 0.873,31.506 0.268,46.694c-14.554,6.747 -30.361,13.22 -45.182,19.56c-2.305,0.481 -0.64,0.298 -4.903,-1.11c-2.825,-11.936 -2.905,-37.003 -3.346,-50.234c17.379,-5.368 29.187,-10.682 45.891,-18.077Zm4.68,-81.076l1.799,0.446c3.951,7.009 2.622,35.383 2.702,45.698c-18.425,11.852 -27.318,14.866 -48.078,23.065l-2.959,-1.239c-2.761,-11.079 -2.29,-42.64 -2.449,-55.721c19.01,-2.836 30.471,-6.573 48.985,-12.249Zm774.216,-13.725c13.111,8.253 26.063,18.355 38.535,27.669c-0.471,21.057 -1.175,33.484 -4.01,54.254c-9.904,-5.066 -26.673,-16.452 -36.686,-22.882c0.892,-19.674 1.616,-39.353 2.161,-59.041Zm-509.234,-400.721c29.593,-25.622 66.655,-59.775 100.293,-78.681l313.912,284.453c55.056,50.06 180.947,152.148 209.365,213.182c-63.557,-44.473 -128.711,-110.708 -185.26,-165.467c-74.567,-72.856 -149.932,-144.895 -226.08,-216.097c-22.395,-20.754 -89.061,-96.397 -121.786,-92.005c-23.456,3.148 -65.243,42.079 -85.919,58.72l-4.525,-4.105Zm86.776,-19.24c12.565,-0.262 22.811,0.799 33.146,9.012c38.645,31.779 75.103,67.573 111.392,102.152c67.127,63.964 136.811,125.817 199.799,193.856l-1.358,2.954c-0.843,0.114 -1.686,0.292 -2.533,0.332c-43.081,2.037 -279.313,-242.636 -331.058,-283.566l-2.925,-2.285c-53.049,41.718 -101.453,80.818 -153.575,124.052c-100.07,83.747 -203.6,164.654 -304.642,247.34c-15.674,12.829 -33.905,26.039 -51.116,36.533c15.099,-24.274 40.359,-51.835 61.823,-70.978c68.851,-61.416 142.174,-122.605 213.653,-180.878c65.714,-53.579 155.018,-136.727 227.394,-178.524Zm-350.38,341.26c8.402,8.164 4.957,47.427 4.595,60.533c-16.834,7.54 -35.239,14.366 -52.519,21.112l-3.147,-1.785c-2.033,-12.491 0.594,-29.617 1.858,-42.659c16.735,-13.527 31.705,-24.651 49.213,-37.201Zm268.129,-313.749l-34.059,28.052c-91.906,73.466 -177.328,158.269 -269.245,232.172c-7.311,5.884 -17.81,15.728 -27.382,15.406l-0.684,-5.101c7.436,-21.79 90.127,-80.52 113.167,-98.925c52.919,-42.211 105.292,-85.097 157.105,-128.649l22.172,-18.705l34.401,-28.354l4.525,4.104Zm79.926,-1092.41c31.283,-2.196 76.495,-1.438 107.927,-1.016c249.586,4.852 496.177,55.329 727.596,148.94c536.215,215.443 965.41,634.282 1193.88,1165.08c-72.465,-63.741 -139.453,-134.595 -212.86,-196.016c-63.463,-53.094 -136.866,-101.047 -203.63,-150.512c-70.735,-52.469 -139.483,-107.57 -206.094,-165.184c-120.637,-103.184 -235.821,-212.717 -358.167,-314.041c-46.858,-38.808 -91.778,-86.082 -140.459,-121.985c-29.43,18.44 -58.849,42.238 -87.778,59.572c-160.034,95.872 -274.504,235.89 -411.885,358.143c-34.768,30.941 -88.337,62.15 -127.968,88.005c-48.89,31.903 -94.132,62.601 -141.168,97.79c-22.767,16.14 -46.297,35.873 -68.202,53.485c-16.11,-12.258 -34.242,-29.791 -51.557,-43.551c-14.96,7.138 -32.517,19.733 -46.615,29.211c-134.689,-84.897 -266.578,-164.798 -398.358,-254.945c-83.385,-57.044 -192.14,-178.87 -276.13,-218.079c-47.76,24.938 -96.754,60.524 -140.826,91.505c-241.823,169.987 -470.168,359.302 -725.326,510.037c-2.686,-12.64 -3.311,-24.235 -13.106,-32.245l-4.927,0.937c-11.297,17.676 -9.354,33.35 -9.716,54.367c-63.067,40.578 -129.251,76.099 -197.929,106.232c-48.945,21.141 -89.071,33.697 -138.968,57.837c9.295,-34.52 41.108,-99.698 57.862,-132.092c86.543,-168.257 195.159,-324.217 322.964,-463.739c412.41,-454.411 938.017,-697.994 1551.44,-727.735Zm-201.618,1102.94c5.983,-1.254 5.686,-1.586 11.356,0.436c5.706,9.562 3.673,28.106 3.431,40.161c-15.322,8.685 -21.236,11.515 -37.723,17.632c-5.888,-6.291 -12.327,-43.244 -14.87,-54.645l37.806,-3.584Zm-462.357,-174.826c1.264,7.688 -33.835,105.32 -39.184,123.636c-27.645,-4.303 -53.064,-9.463 -80.406,-15.104c-6.702,-1.254 -6.786,-1.244 -12.948,-4.124c3.832,-16.764 114.629,-92.159 132.538,-104.408Zm1433.7,-176.035c28.135,18.172 39.824,65.372 49.777,96.888c-52.563,15.466 -91.197,10.34 -142.685,37.147l-37.677,20.785c34.723,-49.307 83.866,-115.591 130.585,-154.82Zm18.697,-162.002c13.776,-1.066 55.354,-3.549 65.382,4.863c-2.131,6.974 -0.605,3.658 -10.112,8.823l-35.997,13.681c-6.563,-7.579 -17.156,-18.355 -19.273,-27.367Z" style="fill:#fff;"/></g><g id="Heart"><path d="M2255.63,156.459c60.762,-3.43 114.396,13.305 156.425,58.913c28.329,31.263 42.972,72.56 40.667,114.683c-7.485,156.322 -257.581,440.165 -369.811,543.685c-52.509,-41.757 -115.095,-110.291 -158.259,-161.595c-10.747,-12.308 -21.221,-24.859 -31.417,-37.628c-29.623,-37.663 -64.014,-81.264 -88.293,-122.178c-44.657,-75.256 -99.639,-155.608 -89.106,-246.944c18.866,-163.618 245.715,-202.143 326.166,-64.177c11.386,19.53 18.623,46.446 31.803,64.202l4.283,0.307c13.939,-14.633 33.534,-56.088 49.777,-75.811c36.642,-44.489 71.41,-65.868 127.765,-73.457Z" style="fill:#fff;fill-rule:nonzero;"/><path d="M2253.79,180.912c9.339,-1.13 18.742,-1.567 28.14,-1.314c46.427,1.314 89.433,29.395 120.409,62.224c-61.634,4.59 -146.303,4.442 -203.888,13.87c76.292,7.43 142.918,7.257 223.279,16.883c12.18,33.301 10.207,63.012 0.754,96.283c-46.293,-0.054 -129.534,4.516 -175.069,9.755c46.595,7.312 117.316,11.109 166.816,15.421l-9.77,24.537c-29.4,0.263 -210.03,-4.089 -219.959,4.749c0.491,0.57 0.907,1.224 1.477,1.715c13.042,11.312 183.203,10.365 210.347,10.93l-35.407,61.644c-43.239,1.383 -86.459,3.287 -129.648,5.711c-12.839,0.808 -46.328,1.516 -54.442,10.736c10.761,12.655 140.34,13.954 164.689,15.624c-11.456,19.045 -28.557,42.566 -41.366,61.298c-15.252,0.996 -49.5,2.622 -57.178,17.741l2.548,4.595c10.171,5.685 19.956,5.066 31.848,5.869c-19.158,29.592 -49.812,65.961 -72.173,93.824c-89.482,-0.173 -160.406,7.564 -250.84,0.759c-14.578,-17.469 -23.862,-29.668 -36.671,-48.454c34.59,-2.712 63.057,-1.021 98.489,-6.846c-34.525,-6.464 -76.678,-8.967 -111.892,-9.988c-7.49,-10.375 -19.436,-23.709 -28.032,-33.816c59.042,0.54 116.81,-7.346 176.759,-9.16c-49.733,-22.678 -133.148,-13.439 -190.475,-15.481c-14.692,-14.211 -25.359,-32.274 -35.838,-49.629c32.205,-0.808 60.276,-3.797 92.318,-7.073c-36.825,-8.08 -68.897,-12.174 -106.475,-16.398c-11.872,-16.154 -18.846,-31.208 -26.549,-49.46c28.472,-4.535 266.652,-17.126 272.918,-24.943c-34.798,-21.255 -240.232,-2.181 -286.902,0.986c-5.725,-10.736 -10.563,-21.364 -15.693,-32.373c31.273,-0.045 44.711,-1.586 75.261,-8.516c-23.243,-1.963 -55.389,-1.2 -79.296,-1.324c-3.614,-10.077 -6.866,-21.949 -9.998,-32.324c81.367,-2.592 148.752,4.233 231.919,-10.533c-57.927,-14.42 -172.704,-12.199 -235.355,-7.426c-0.361,-13.651 0.372,-28.135 0.789,-41.846c45.162,-0.743 99.891,-1.16 143.497,-10.489c-46.054,-3.341 -94.226,-0.818 -141.064,-2.706c4.303,-20.304 8.427,-30.009 18.049,-47.636c44.404,-4.595 94.364,-3.564 139.438,-3.485c39.115,0.069 83.871,-0.843 122.242,2.246c8.908,18.524 13.181,30.276 19.892,49.851c-45.628,-0.243 -80.827,-0.585 -126.039,7.892c15.133,5.036 30.738,8.516 46.58,10.389c18.217,2.171 74.78,1.572 84.545,8.412c1.487,6.033 2.821,17.949 10.271,17.989c19.55,0.104 32.795,-14.945 45.807,-27.397c37.692,-3.614 179.316,-2.751 203.838,-16.645l-1.09,-3.207c-37.846,-16.879 -138.274,-11.758 -184.303,-10.841c4.456,-7.936 9.185,-15.719 14.186,-23.323c31.07,-47.71 64.059,-67.696 118.307,-79.3Z" style="fill:#fb2c36;fill-rule:nonzero;"/><path d="M2051.01,371.327c14.078,-0.149 69.095,-3.173 70.964,14.31c-18.331,4.69 -46.209,5.855 -64.976,1.294c-7.058,-6.27 -4.907,-3.43 -5.988,-15.604Z" style="fill:#fb2c36;fill-rule:nonzero;"/><path d="M2110.4,600.084c16.036,-1.165 52.405,-3.723 65.694,3.891l1.111,4.164l-4.422,3.638c-12.501,0.183 -61.218,3.346 -67.379,-7.882l4.996,-3.811Z" style="fill:#fb2c36;fill-rule:nonzero;"/><path d="M2045.31,515.246c17.656,-0.55 49.629,-2.479 65.748,3.926l1.552,4.04l-4.263,2.334c-13.384,0.714 -56.167,5.166 -64.901,-4.381l1.864,-5.919Z" style="fill:#fb2c36;fill-rule:nonzero;"/><path d="M2044.62,734.119c33.033,-3.708 99.56,3.455 137.604,4.803l-45.911,54.318c-19.892,0.129 -73.288,-1.829 -87.262,8.997l1.77,1.844c14.91,4.099 22.197,2.914 37.326,1.997l34.986,-1.08c-13.924,15.356 -24.473,26.088 -39.616,40.21c-37.588,-33.072 -71.167,-64.891 -102.123,-104.437c20.477,-2.627 42.565,-4.501 63.226,-6.652Z" style="fill:#fb2c36;fill-rule:nonzero;"/><path d="M1875.47,181.199c3.5,-0.367 7.004,-0.664 10.519,-0.877c48.399,-2.836 84.302,19.495 118.807,50.531c-29.92,0.099 -55.627,-1.453 -85.314,-3.971c-45.231,-5.19 -88.059,-5.482 -133.534,-6.404c29.167,-24.482 52.836,-33.36 89.522,-39.279Z" style="fill:#fb2c36;fill-rule:nonzero;"/></g><path d="M2078.41,1236.51c57.996,0.412 54.596,53.857 55.637,97.23c16.486,10.103 44.939,48.053 55.031,65.501c37.227,64.376 4.05,151.369 9.934,222.675c2.315,28.011 24.021,89.849 17.989,112.001c-2.181,1.299 -13.741,8.318 -14.306,9.909c-19.471,55.726 -19.689,124.102 -9.359,182.147c11.629,65.308 7.55,129.544 7.163,195.779c-0.099,16.526 6.34,57.163 -16.397,61.014c-50.219,8.511 -98.241,4.853 -148.272,-2.414c-21.319,-3.014 -60.801,3.554 -79.608,-6.429c-9.998,-17.29 6.593,-38.936 4.997,-64.494c-2.389,-38.213 -10.013,-72.386 -12.209,-110.822c-44.231,21.647 -78.661,56.672 -93.8,103.842c-1.095,11.347 -0.912,24.374 -8.213,32.354c-35.889,-6.786 -21.573,-67.473 -23.015,-91.391c-0.224,-3.702 -6.4,-12.783 -8.65,-16.105c1.303,-26.683 36.235,-23.436 55.458,-23.996c22.232,-15.307 69.228,-63.042 91.301,-84.005c0.253,-12.184 -0.282,-25.597 -0.51,-37.881c-22.029,-5.7 -49.579,-6.295 -68.738,-17.101c-2.721,-8.357 29.543,-157.348 36.176,-170.87c37.3,-76.079 49.078,-65.927 14.276,-153.337c-0.139,8.922 1.675,23.684 -4.784,29.325l-6.652,-2.186l-4.813,2.959c-2.855,-6.087 -0.664,-4.431 -5.418,-6.979l-5.482,11.534l-2.524,-0.148l-2.994,-21.186c-5.948,-3.252 -5.12,5.725 -12.248,5.314c2.027,-9.418 7.103,-29.365 3.321,-37.589l-8.109,4.348c-1.948,-12.636 10.766,-27.298 5.66,-47.24c-4.555,7.064 -6.349,11.223 -13.527,15.634l-4.347,-1.229c1.804,-2.746 10.528,-13.389 10.726,-15.48c2.999,-26.004 7.902,-52.093 13.468,-77.74c7.223,-30.842 4.794,-93.175 40.667,-106.826c54.308,-20.666 65.674,-11.144 86.825,35.685c-5.621,-52.926 -28.289,-74.255 45.346,-91.803Zm2.241,644.261l5.477,1.284c10.316,63.642 50.159,174.716 22.629,239.642c-8.883,20.933 -43.393,22.5 -64.609,27.992c-62.755,-23.674 -36.339,-138.358 -31.704,-195.219c35.293,-23.198 30.455,-20.789 45.37,-61.674c2.375,-6.508 15.411,-9.586 22.837,-12.025Z" style="fill:#fff;"/><path d="M2213.03,1463.43c12.254,0.62 32.656,0.699 42.392,7.118l-0.55,4.699c-11.585,2.538 -23.313,6.335 -34.629,4.278c-7.168,-5.646 -4.908,-4.377 -7.213,-16.095Z" style="fill:#fff;fill-rule:nonzero;"/></g></svg>